# This file uses centimeters as units for non-parametric coordinates.

mtllib Bucket.mtl
g default
v 0.498016 0.481341 -10.460617
v 0.262350 0.481341 -11.029566
v -0.306598 0.481341 -11.265232
v -0.875547 0.481341 -11.029566
v -1.111213 0.481341 -10.460617
v -0.875547 0.481341 -9.891669
v -0.306598 0.481341 -9.656003
v 0.262350 0.481341 -9.891669
v 0.724143 2.915833 -10.460617
v 0.422248 2.915833 -11.189463
v -0.306598 2.915833 -11.491359
v -1.035444 2.915833 -11.189463
v -1.337340 2.915833 -10.460617
v -1.035444 2.915833 -9.731772
v -0.306598 2.915833 -9.429876
v 0.422248 2.915833 -9.731772
v 0.974439 2.915833 -10.460617
v 0.599234 2.915833 -11.366450
v -0.306598 2.915833 -11.741655
v -1.212430 2.915833 -11.366450
v -1.587636 2.915833 -10.460617
v -1.212430 2.915833 -9.554786
v -0.306598 2.915833 -9.179580
v 0.599234 2.915833 -9.554786
v 0.693402 0.481341 -10.460617
v 0.400508 0.481341 -11.167724
v -0.306598 0.481341 -11.460617
v -1.013705 0.481341 -11.167724
v -1.306598 0.481341 -10.460617
v -1.013705 0.481341 -9.753511
v -0.306598 0.481341 -9.460617
v 0.400508 0.481341 -9.753511
v 0.513450 0.647504 -10.460617
v 0.273264 0.647504 -9.880755
v -0.306598 0.647504 -9.640569
v -0.886460 0.647504 -9.880755
v -1.126647 0.647504 -10.460617
v -0.886460 0.647504 -11.040479
v -0.306598 0.647504 -11.280666
v 0.273264 0.647504 -11.040479
vt 0.000000 0.750000
vt 0.125000 0.750000
vt 0.250000 0.750000
vt 0.375000 0.750000
vt 0.500000 0.750000
vt 0.625000 0.750000
vt 0.750000 0.750000
vt 0.875000 0.750000
vt 1.000000 0.750000
vt 0.000000 0.500000
vt 0.125000 0.500000
vt 0.250000 0.500000
vt 0.375000 0.500000
vt 0.500000 0.500000
vt 0.625000 0.500000
vt 0.750000 0.500000
vt 0.875000 0.500000
vt 1.000000 0.500000
vt 0.000000 0.250000
vt 0.125000 0.250000
vt 0.250000 0.250000
vt 0.375000 0.250000
vt 0.500000 0.250000
vt 0.625000 0.250000
vt 0.750000 0.250000
vt 0.875000 0.250000
vt 1.000000 0.250000
vt 0.000000 0.000000
vt 0.125000 0.000000
vt 0.250000 0.000000
vt 0.375000 0.000000
vt 0.500000 0.000000
vt 0.625000 0.000000
vt 0.750000 0.000000
vt 0.875000 0.000000
vt 1.000000 0.000000
vt 0.000000 0.982937
vt 1.000000 0.982937
vt 0.875000 0.982937
vt 0.750000 0.982937
vt 0.625000 0.982937
vt 0.500000 0.982937
vt 0.375000 0.982937
vt 0.250000 0.982937
vt 0.125000 0.982937
vn -0.920497 0.085500 0.381281
vn -0.920497 0.085500 0.381280
vn -0.920497 0.085500 0.381281
vn -0.920497 0.085500 0.381280
vn -0.381280 0.085500 0.920497
vn -0.381280 0.085500 0.920497
vn -0.381280 0.085500 0.920497
vn -0.381280 0.085500 0.920497
vn 0.381281 0.085500 0.920497
vn 0.381281 0.085500 0.920497
vn 0.381281 0.085500 0.920497
vn 0.381281 0.085500 0.920497
vn 0.920497 0.085500 0.381281
vn 0.920497 0.085500 0.381281
vn 0.920497 0.085500 0.381281
vn 0.920497 0.085500 0.381281
vn 0.920497 0.085500 -0.381281
vn 0.920497 0.085500 -0.381281
vn 0.920497 0.085500 -0.381281
vn 0.920497 0.085500 -0.381281
vn 0.381281 0.085500 -0.920497
vn 0.381281 0.085500 -0.920497
vn 0.381281 0.085500 -0.920497
vn 0.381281 0.085500 -0.920497
vn -0.381281 0.085500 -0.920497
vn -0.381281 0.085500 -0.920497
vn -0.381281 0.085500 -0.920497
vn -0.381281 0.085500 -0.920497
vn -0.920497 0.085500 -0.381281
vn -0.920497 0.085500 -0.381281
vn -0.920497 0.085500 -0.381281
vn -0.920497 0.085500 -0.381281
vn 0.000000 1.000000 -0.000000
vn 0.000000 1.000000 0.000000
vn 0.000000 1.000000 0.000000
vn 0.000000 1.000000 -0.000000
vn 0.000000 1.000000 0.000000
vn 0.000000 1.000000 0.000000
vn 0.000000 1.000000 0.000000
vn 0.000000 1.000000 0.000000
vn 0.000000 1.000000 0.000000
vn 0.000000 1.000000 0.000000
vn 0.000000 1.000000 -0.000000
vn 0.000000 1.000000 -0.000000
vn 0.000000 1.000000 0.000000
vn 0.000000 1.000000 0.000000
vn 0.000000 1.000000 0.000000
vn 0.000000 1.000000 0.000000
vn 0.918670 -0.106052 -0.380524
vn 0.918670 -0.106052 -0.380524
vn 0.918670 -0.106052 -0.380524
vn 0.918670 -0.106052 -0.380524
vn 0.380524 -0.106052 -0.918670
vn 0.380524 -0.106052 -0.918670
vn 0.380524 -0.106052 -0.918670
vn 0.380524 -0.106052 -0.918670
vn -0.380524 -0.106052 -0.918670
vn -0.380524 -0.106052 -0.918670
vn -0.380524 -0.106052 -0.918670
vn -0.380524 -0.106052 -0.918670
vn -0.918670 -0.106052 -0.380524
vn -0.918670 -0.106052 -0.380524
vn -0.918670 -0.106052 -0.380524
vn -0.918670 -0.106052 -0.380524
vn -0.918670 -0.106051 0.380524
vn -0.918670 -0.106052 0.380524
vn -0.918670 -0.106051 0.380524
vn -0.918670 -0.106051 0.380524
vn -0.380524 -0.106051 0.918670
vn -0.380524 -0.106052 0.918670
vn -0.380524 -0.106052 0.918670
vn -0.380524 -0.106052 0.918670
vn 0.380524 -0.106052 0.918670
vn 0.380524 -0.106052 0.918670
vn 0.380524 -0.106052 0.918670
vn 0.380524 -0.106052 0.918670
vn 0.918670 -0.106052 0.380524
vn 0.918670 -0.106052 0.380524
vn 0.918670 -0.106052 0.380524
vn 0.918670 -0.106052 0.380524
vn 0.000000 -1.000000 0.000000
vn 0.000000 -1.000000 0.000000
vn 0.000000 -1.000000 0.000000
vn 0.000000 -1.000000 0.000000
vn 0.000000 -1.000000 0.000000
vn 0.000000 -1.000000 0.000000
vn 0.000000 -1.000000 0.000000
vn 0.000000 -1.000000 0.000000
vn 0.000000 -1.000000 0.000000
vn 0.000000 -1.000000 0.000000
vn 0.000000 -1.000000 0.000000
vn 0.000000 -1.000000 0.000000
vn 0.000000 -1.000000 0.000000
vn 0.000000 -1.000000 0.000000
vn 0.000000 -1.000000 0.000000
vn 0.000000 -1.000000 0.000000
vn 0.000000 -1.000000 0.000000
vn 0.000000 -1.000000 0.000000
vn 0.000000 -1.000000 0.000000
vn 0.000000 -1.000000 0.000000
vn 0.000000 -1.000000 0.000000
vn 0.000000 -1.000000 0.000000
vn 0.000000 -1.000000 0.000000
vn 0.000000 -1.000000 0.000000
vn 0.000000 1.000000 0.000000
vn 0.000000 1.000000 0.000000
vn 0.000000 1.000000 0.000000
vn 0.000000 1.000000 0.000000
vn 0.000000 1.000000 0.000000
vn 0.000000 1.000000 0.000000
vn 0.000000 1.000000 0.000000
vn 0.000000 1.000000 0.000000
s off
g pPipe1
usemtl initialShadingGroup
f 40/45/1 33/37/2 9/1/3 10/2/4
f 39/44/5 40/45/6 10/2/7 11/3/8
f 38/43/9 39/44/10 11/3/11 12/4/12
f 37/42/13 38/43/14 12/4/15 13/5/16
f 36/41/17 37/42/18 13/5/19 14/6/20
f 35/40/21 36/41/22 14/6/23 15/7/24
f 34/39/25 35/40/26 15/7/27 16/8/28
f 33/38/29 34/39/30 16/8/31 9/9/32
s 1
f 10/2/33 9/1/34 17/10/35 18/11/36
f 11/3/37 10/2/33 18/11/36 19/12/38
f 12/4/39 11/3/37 19/12/38 20/13/40
f 13/5/41 12/4/39 20/13/40 21/14/42
f 14/6/43 13/5/41 21/14/42 22/15/44
f 15/7/45 14/6/43 22/15/44 23/16/46
f 16/8/47 15/7/45 23/16/46 24/17/48
f 9/9/34 16/8/47 24/17/48 17/18/35
s off
f 18/11/49 17/10/50 25/19/51 26/20/52
f 19/12/53 18/11/54 26/20/55 27/21/56
f 20/13/57 19/12/58 27/21/59 28/22/60
f 21/14/61 20/13/62 28/22/63 29/23/64
f 22/15/65 21/14/66 29/23/67 30/24/68
f 23/16/69 22/15/70 30/24/71 31/25/72
f 24/17/73 23/16/74 31/25/75 32/26/76
f 17/18/77 24/17/78 32/26/79 25/27/80
s 2
f 26/20/81 25/19/82 1/28/83 2/29/84
f 27/21/85 26/20/81 2/29/84 3/30/86
f 28/22/87 27/21/85 3/30/86 4/31/88
f 29/23/89 28/22/87 4/31/88 5/32/90
f 30/24/91 29/23/89 5/32/90 6/33/92
f 31/25/93 30/24/91 6/33/92 7/34/94
f 32/26/95 31/25/93 7/34/94 8/35/96
f 25/27/82 32/26/95 8/35/96 1/36/83
s off
f 2/29/97 1/36/98 8/35/99 7/34/100 6/33/101 5/32/102 4/31/103 3/30/104
f 34/39/105 33/37/106 40/45/107 39/44/108 38/43/109 37/42/110 36/41/111 35/40/112
