# This file uses centimeters as units for non-parametric coordinates.

mtllib CorkBoard.mtl
g default
v -7.500000 6.125907 -10.854533
v 7.500000 6.125907 -10.854533
v -7.500000 18.125906 -10.854533
v 7.500000 18.125906 -10.854533
v -7.500000 18.125906 -12.425080
v 7.500000 18.125906 -12.425080
v -7.500000 6.125907 -12.425080
v 7.500000 6.125907 -12.425080
v -7.235397 6.337589 -10.854533
v 7.235397 6.337589 -10.854533
v 7.235397 17.914225 -10.854533
v -7.235397 17.914225 -10.854533
v -7.235397 6.337589 -11.712238
v 7.235397 6.337589 -11.712238
v 7.235397 17.914225 -11.712238
v -7.235397 17.914225 -11.712238
vt 0.681253 0.011070
vt 0.713015 0.011070
vt 0.711270 0.253976
vt 0.682998 0.253976
vt 0.711260 0.739788
vt 0.683009 0.739788
vt 0.683005 0.496882
vt 0.711264 0.496882
vt 0.723643 0.265829
vt 0.722662 0.026638
vt 0.740378 0.026638
vt 0.739397 0.265829
vt 0.723644 0.744213
vt 0.723644 0.505021
vt 0.739396 0.505021
vt 0.739395 0.744213
vt 0.709858 0.982694
vt 0.684410 0.982694
vt 0.724431 0.983404
vt 0.738611 0.983404
vt 0.014865 0.341545
vt 0.655669 0.341545
vt 0.655669 0.982349
vt 0.014865 0.982349
vt 0.357405 0.318843
vt 0.357405 0.038888
vt 0.637359 0.038888
vt 0.637359 0.318843
vt 0.017331 0.327961
vt 0.017331 0.015506
vt 0.022843 0.021018
vt 0.022843 0.322449
vt 0.329786 0.015506
vt 0.324274 0.021018
vt 0.329786 0.327961
vt 0.324274 0.322449
vn 0.000000 0.000000 1.000000
vn 0.000000 0.000000 1.000000
vn 0.000000 0.000000 1.000000
vn 0.000000 0.000000 1.000000
vn 0.000000 1.000000 0.000000
vn 0.000000 1.000000 0.000000
vn 0.000000 1.000000 0.000000
vn 0.000000 1.000000 0.000000
vn 0.000000 0.000000 -1.000000
vn 0.000000 0.000000 -1.000000
vn 0.000000 0.000000 -1.000000
vn 0.000000 0.000000 -1.000000
vn 0.000000 -1.000000 0.000000
vn 0.000000 -1.000000 0.000000
vn 0.000000 -1.000000 0.000000
vn 0.000000 -1.000000 0.000000
vn 1.000000 0.000000 0.000000
vn 1.000000 0.000000 0.000000
vn 1.000000 0.000000 0.000000
vn 1.000000 0.000000 0.000000
vn -1.000000 0.000000 0.000000
vn -1.000000 0.000000 0.000000
vn -1.000000 0.000000 0.000000
vn -1.000000 0.000000 0.000000
vn 0.000000 0.000000 1.000000
vn 0.000000 0.000000 1.000000
vn 0.000000 0.000000 1.000000
vn 0.000000 0.000000 1.000000
vn 0.000000 0.000000 1.000000
vn 0.000000 0.000000 1.000000
vn 0.000000 0.000000 1.000000
vn 0.000000 0.000000 1.000000
vn 0.000000 0.000000 1.000000
vn 0.000000 0.000000 1.000000
vn 0.000000 0.000000 1.000000
vn 0.000000 0.000000 1.000000
vn 0.000000 0.000000 1.000000
vn 0.000000 0.000000 1.000000
vn 0.000000 0.000000 1.000000
vn 0.000000 0.000000 1.000000
vn 0.000000 1.000000 0.000000
vn 0.000000 1.000000 0.000000
vn 0.000000 1.000000 0.000000
vn 0.000000 1.000000 0.000000
vn -1.000000 0.000000 0.000000
vn -1.000000 0.000000 0.000000
vn -1.000000 0.000000 0.000000
vn -1.000000 0.000000 0.000000
vn 0.000000 -1.000000 0.000000
vn 0.000000 -1.000000 0.000000
vn 0.000000 -1.000000 0.000000
vn 0.000000 -1.000000 0.000000
vn 1.000000 0.000000 0.000000
vn 1.000000 0.000000 0.000000
vn 1.000000 0.000000 0.000000
vn 1.000000 0.000000 0.000000
s off
g Board
usemtl aiStandardSurface2SG
f 13/21/1 14/22/2 15/23/3 16/24/4
f 3/7/5 4/4/6 6/3/7 5/8/8
f 5/25/9 6/26/10 8/27/11 7/28/12
f 7/5/13 8/17/14 2/18/15 1/6/16
f 2/1/17 8/2/18 6/3/19 4/4/20
f 7/5/21 1/6/22 3/7/23 5/8/24
f 1/29/25 2/30/26 10/31/27 9/32/28
f 2/30/29 4/33/30 11/34/31 10/31/32
f 4/33/33 3/35/34 12/36/35 11/34/36
f 3/35/37 1/29/38 9/32/39 12/36/40
f 9/14/41 10/9/42 14/12/43 13/15/44
f 10/9/45 11/10/46 15/11/47 14/12/48
f 11/19/49 12/13/50 16/16/51 15/20/52
f 12/13/53 9/14/54 13/15/55 16/16/56
